# xmcd
#
# Track frame offsets:
#	150
#	20060
#	31807
#	50620
#	67172
#	79140
#	95132
#	112147
#	129987
#	144190
#	161815
#	175615
#
# Disc length: 3513 seconds
#
# Revision: 0
# Processed by: cddbd v1.4PL0 Copyright (c) Steve Scherf et al.
# Submitted via: dBpowerAMP V4.0
#
DISCID=a60db70c
DTITLE=Cam Fletcher - Kickin' Up Dirt
DYEAR=1996
DGENRE=Country
TTITLE0=Waiting On Luck
TTITLE1=Kickin' Up Dirt
TTITLE2=Easier For Her
TTITLE3=Who Really Knows
TTITLE4=City Man - Country Bound
TTITLE5=8 Seconds
TTITLE6=Where I Should Have Been
TTITLE7=A Drover's Wife
TTITLE8=Three Inches Of Dust
TTITLE9=When She Walked Away
TTITLE10=You'll Get Burnt
TTITLE11=A Drover's Wife (Instrumental)
EXTD=
EXTT0=
EXTT1=
EXTT2=
EXTT3=
EXTT4=
EXTT5=
EXTT6=
EXTT7=
EXTT8=
EXTT9=
EXTT10=
EXTT11=
PLAYORDER=
